<svg width="17" height="16" viewBox="0 0 17 16" fill="none" xmlns="http://www.w3.org/2000/svg">
<g clip-path="url(#clip0_115_3877)">
<path d="M6.31242 12.6668C2.97909 13.6668 2.97909 11.0001 1.64575 10.6668M10.9791 14.6668V12.0868C11.0041 11.7689 10.9611 11.4493 10.8531 11.1493C10.745 10.8493 10.5744 10.5757 10.3524 10.3468C12.4458 10.1135 14.6458 9.32012 14.6458 5.68012C14.6456 4.74934 14.2875 3.85425 13.6458 3.18012C13.9497 2.36579 13.9282 1.46569 13.5858 0.666788C13.5858 0.666788 12.7991 0.433455 10.9791 1.65345C9.45109 1.23934 7.84041 1.23934 6.31242 1.65345C4.49242 0.433455 3.70575 0.666788 3.70575 0.666788C3.36334 1.46569 3.34185 2.36579 3.64575 3.18012C2.99917 3.85925 2.64077 4.76243 2.64575 5.70012C2.64575 9.31345 4.84575 10.1068 6.93909 10.3668C6.71975 10.5934 6.55059 10.8637 6.44262 11.1601C6.33465 11.4564 6.29029 11.7722 6.31242 12.0868V14.6668" stroke="#DEE1E3" stroke-width="1.33333" stroke-linecap="round" stroke-linejoin="round"/>
</g>
<defs>
<clipPath id="clip0_115_3877">
<rect width="16" height="16" fill="white" transform="translate(0.3125)"/>
</clipPath>
</defs>
</svg>
