<svg width="50" height="57" viewBox="0 0 50 57" fill="none" xmlns="http://www.w3.org/2000/svg">
<path d="M19.8257 17.8778C20.2511 19.3156 20.2511 20.8318 19.8257 22.2691C21.1158 22.9772 22.1693 24.0559 22.8603 25.3792C24.2632 24.9432 25.7427 24.9432 27.1451 25.3792C27.836 24.0559 28.8885 22.9773 30.1797 22.2691C29.7543 20.8314 29.7543 19.3151 30.1797 17.8778C28.8885 17.1697 27.8361 16.0911 27.1451 14.7677C25.7422 15.2037 24.2627 15.2037 22.8603 14.7677C22.1694 16.0911 21.1158 17.1696 19.8257 17.8778ZM0.840798 34.4788C6.33068 34.369 11.6224 35.3036 15.93 37.7682C19.5445 39.8371 22.4562 42.9684 24.204 47.4416C24.7455 47.3465 25.2593 47.3465 25.8007 47.4416C27.5485 42.9678 30.4602 39.8371 34.0747 37.7682C38.3966 35.2944 43.711 34.3621 49.2222 34.48C49.7298 34.4903 50.0925 34.9775 49.9792 35.4784H49.9814C47.3194 47.0369 42.6937 48.1509 36.8828 49.5504C34.6473 50.0883 32.2242 50.6723 29.694 51.9849C29.809 54.7141 27.673 57 25.0005 57C22.3291 57 20.1932 54.7146 20.3069 51.9849C11.4337 47.3773 3.74047 51.6843 0.0211235 35.4785C-0.0993942 34.9486 0.312144 34.4506 0.839194 34.479L0.840798 34.4788ZM15.158 39.1894C11.3581 37.0151 6.70019 36.1095 1.81115 36.097C4.27707 45.7465 8.37575 46.7328 13.4819 47.9624C15.9478 48.5566 18.6335 49.2032 21.5132 50.7936C21.8159 50.9495 21.9964 51.2945 21.9386 51.6542C21.6237 53.5855 23.0716 55.3681 25.0015 55.3681C26.8193 55.3681 28.2471 53.7743 28.0971 51.9194C28.0894 51.8255 28.0788 51.7424 28.0677 51.6672C28.0066 51.3297 28.1616 50.9745 28.4726 50.8032C31.3595 49.206 34.0508 48.5583 36.5222 47.963C41.6289 46.7335 45.7276 45.7471 48.1918 36.0976C39.0275 36.1232 30.3628 39.2748 27.0359 48.688C26.8882 49.1058 26.4389 49.3255 26.0279 49.1787C25.3925 48.951 24.6217 48.939 23.9874 49.1741C23.5742 49.3278 23.1171 49.1149 22.966 48.6886C21.3965 44.2461 18.6313 41.1793 15.1568 39.191L15.158 39.1894ZM18.442 18.8946C18.3687 18.5246 18.2626 18.1671 18.1238 17.8234C18.1149 17.8023 18.1043 17.7818 18.0966 17.7607C17.9316 17.343 18.1282 16.8677 18.5353 16.6992C19.972 16.1027 21.1262 14.9171 21.7098 13.4457H21.7121C21.7132 13.4423 21.7143 13.4389 21.7165 13.4355C21.8859 13.0228 22.3507 12.8281 22.7545 13.0029C23.8142 13.4611 25.0171 13.5846 26.1523 13.3501C26.5133 13.2761 26.862 13.1662 27.1975 13.0251C27.218 13.0148 27.2369 13.0052 27.2586 12.996C27.6662 12.827 28.13 13.0285 28.2944 13.4457C28.8764 14.9181 30.0322 16.102 31.4689 16.6992L31.4678 16.7015C31.4711 16.7026 31.4745 16.7037 31.4778 16.706C31.8815 16.8796 32.0715 17.356 31.901 17.7698C31.4539 18.8558 31.3334 20.0887 31.5622 21.2521C31.6344 21.622 31.7416 21.9795 31.8793 22.3233C31.8893 22.3443 31.8988 22.3648 31.9077 22.3859C32.0726 22.8037 31.876 23.279 31.4689 23.4474C30.0322 24.044 28.877 25.2295 28.2944 26.7009H28.2922C28.2911 26.7043 28.2899 26.7077 28.2877 26.7112C28.1183 27.1238 27.6524 27.3185 27.2497 27.1438C26.1901 26.6856 24.9871 26.562 23.852 26.7966C23.491 26.8717 23.1411 26.9804 22.8067 27.1216C22.7862 27.1318 22.7662 27.1415 22.7456 27.1506C22.338 27.3197 21.8743 27.1182 21.7099 26.7009C21.1278 25.2285 19.971 24.0446 18.5353 23.4475V23.4452C18.532 23.4441 18.5287 23.4429 18.5253 23.4406C18.1227 23.267 17.9327 22.7906 18.1021 22.3768C18.5503 21.2908 18.6708 20.0579 18.442 18.8946ZM18.5031 3.9969C19.7738 1.56364 22.2563 0 25.0022 0C27.749 0 30.2316 1.5635 31.5012 3.9969C32.6603 3.63603 33.886 3.57343 35.064 3.81078C37.9981 4.39818 40.2978 6.7552 40.8711 9.76111C41.1016 10.9695 41.0405 12.2257 40.6895 13.4135C43.0637 14.7147 44.5894 17.259 44.5894 20.0742C44.5894 22.8882 43.0639 25.4325 40.6895 26.7337C41.0405 27.9216 41.1016 29.1778 40.8711 30.3862C40.298 33.3932 37.9981 35.7491 35.0652 36.3365C33.8861 36.5738 32.6604 36.5112 31.5014 36.1504C30.2318 38.5836 27.7492 40.1473 25.0023 40.1473C22.2566 40.1473 19.774 38.5838 18.5033 36.1504C17.3453 36.5112 16.1201 36.5738 14.9404 36.3365C12.0063 35.7491 9.70762 33.3932 9.13451 30.3862C8.90291 29.1778 8.96401 27.9216 9.31611 26.7337C6.9419 25.4326 5.41619 22.8882 5.41619 20.0742C5.41619 17.259 6.94175 14.7148 9.31611 13.4135C8.96399 12.2256 8.90291 10.9695 9.13451 9.76111C9.70765 6.75403 12.0063 4.39815 14.9404 3.81078C16.1195 3.57343 17.3451 3.63604 18.5031 3.9969ZM21.7826 2.63425C20.8368 3.28655 20.0887 4.22005 19.6532 5.31857H19.651C19.6499 5.32199 19.6487 5.3254 19.6465 5.32882C19.4771 5.74148 19.0112 5.93615 18.6085 5.76141C16.4631 4.83477 13.9555 5.31516 12.2788 7.03242C11.4357 7.89645 10.9076 8.9602 10.6954 10.0742C10.4788 11.2074 10.5871 12.3907 11.018 13.4677C11.0269 13.4876 11.0364 13.5081 11.0453 13.5292C11.2102 13.9469 11.0136 14.4222 10.6065 14.5907C8.44556 15.4895 7.00872 17.6416 7.00872 20.0737C7.00872 22.5058 8.44443 24.6551 10.6065 25.5556V25.5579C10.6098 25.559 10.6132 25.5601 10.6165 25.5624C11.0192 25.736 11.2091 26.2124 11.0386 26.6262C10.1344 28.825 10.6032 31.395 12.2788 33.1134C13.1218 33.9774 14.1598 34.5187 15.2456 34.7362C16.3525 34.957 17.507 34.8472 18.5567 34.4055C18.5773 34.3964 18.5973 34.3856 18.6178 34.3776C19.0255 34.2085 19.4892 34.41 19.6536 34.8272C20.5306 37.0419 22.6305 38.5145 25.0025 38.5145C27.3767 38.5145 29.4738 37.0431 30.3524 34.8272H30.3547C30.3558 34.8238 30.3569 34.8204 30.358 34.817C30.5285 34.4043 30.9933 34.2097 31.3971 34.3844C33.5426 35.311 36.0501 34.8306 37.7268 33.1134C38.5699 32.2494 39.0969 31.1856 39.3102 30.0728C39.5257 28.9384 39.4185 27.7551 38.9876 26.6781C38.9776 26.6582 38.9681 26.6377 38.9604 26.6167C38.7954 26.1989 38.992 25.7236 39.3991 25.5551C41.56 24.6564 42.9969 22.5042 42.9969 20.0733C42.9969 17.64 41.5612 15.4907 39.3981 14.5902L39.3992 14.588C39.3959 14.5868 39.3926 14.5857 39.3892 14.5834C38.9866 14.4098 38.7966 13.9334 38.966 13.5196C39.8713 11.3208 39.4025 8.75084 37.727 7.03245C36.8828 6.16841 35.846 5.62712 34.759 5.40964C33.6533 5.1888 32.4987 5.29865 31.4479 5.74034C31.4284 5.74944 31.4084 5.76026 31.3879 5.76823C30.9802 5.93728 30.5165 5.73579 30.3521 5.31857C29.4752 3.10389 27.3752 1.63131 25.0021 1.63131C23.8081 1.63131 22.7002 2.00017 21.7826 2.63425Z" fill="white"/>
</svg>
